<?xml version="1.0" encoding="UTF-8" standalone="no"?>
<svg width="442px" height="357px" viewBox="0 0 442 357" version="1.1" xmlns="http://www.w3.org/2000/svg" xmlns:xlink="http://www.w3.org/1999/xlink">
    <!-- Generator: Sketch 46.2 (44496) - http://www.bohemiancoding.com/sketch -->
    <title>ge_buildcaching_2</title>
    <desc>Created with Sketch.</desc>
    <defs></defs>
    <g id="Training-Diagrams" stroke="none" stroke-width="1" fill="none" fill-rule="evenodd">
        <g id="ge_buildcaching_2">
            <rect id="Rectangle-path" stroke="#000000" fill="#FFFFFF" fill-rule="nonzero" x="125" y="239" width="190" height="80" rx="5"></rect>
            <g id="Group" transform="translate(185.000000, 271.000000)" font-size="14" font-family="Lato, sans-serif" fill="#000000" font-weight="normal">
                <g id="Gradle-task">
                    <text>
                        <tspan x="0" y="14">Gradle task</tspan>
                    </text>
                </g>
            </g>
            <g id="Group" transform="translate(76.000000, 87.000000)" font-size="14" font-family="Lato, sans-serif" fill="#000000" font-weight="normal">
                <g id="Local-cache">
                    <text>
                        <tspan x="0.5" y="14">Local cache</tspan>
                    </text>
                </g>
            </g>
            <g id="Group" transform="translate(300.000000, 88.000000)" font-size="14" font-family="Lato, sans-serif" fill="#000000" font-weight="normal">
                <g id="Remote-cache">
                    <text>
                        <tspan x="0.5" y="14">Remote cache</tspan>
                    </text>
                </g>
            </g>
            <path d="M218,238 L140,153" id="Shape" stroke="#000000"></path>
            <path d="M224,239 L314,153" id="Shape" stroke="#000000" stroke-linecap="round" stroke-linejoin="round" stroke-dasharray="5"></path>
            <g id="Group" transform="translate(145.000000, 186.000000)" font-size="14" font-family="Lato, sans-serif" fill="#000000" font-weight="normal">
                <g id="Put">
                    <text>
                        <tspan x="0.5" y="14">Put</tspan>
                    </text>
                </g>
            </g>
            <polyline id="Shape" stroke="#000000" points="81 149 81 279 119 278.992381"></polyline>
            <g id="Group" transform="translate(44.000000, 223.000000)" font-size="14" font-family="Lato, sans-serif" fill="#000000" font-weight="normal">
                <g id="Read">
                    <text>
                        <tspan x="0.5" y="14">Read</tspan>
                    </text>
                </g>
            </g>
            <polyline id="Shape" stroke="#000000" stroke-linecap="round" stroke-linejoin="round" stroke-dasharray="5" points="364 153 364 278 319 278"></polyline>
            <g id="Group" transform="translate(371.000000, 223.000000)" font-size="14" font-family="Lato, sans-serif" fill="#000000" font-weight="normal">
                <g id="Read">
                    <text>
                        <tspan x="0.5" y="14">Read</tspan>
                    </text>
                </g>
            </g>
            <g id="Group" transform="translate(283.000000, 186.000000)" font-size="14" font-family="Lato, sans-serif" fill="#000000" font-weight="normal">
                <g id="Put">
                    <text>
                        <tspan x="0.5" y="14">Put</tspan>
                    </text>
                </g>
            </g>
            <polygon id="Polygon-Copy-2" stroke="#000000" points="345 34 400 66.5 400 131.5 345 164 290 131.5 290 66.5"></polygon>
            <polygon id="Polygon-Copy-3" stroke="#000000" points="111 34 166 66.5 166 131.5 111 164 56 131.5 56 66.5"></polygon>
            <polyline id="Stroke-623" stroke="#0B0C0A" stroke-linecap="round" stroke-linejoin="round" transform="translate(326.000000, 278.500000) rotate(-270.000000) translate(-326.000000, -278.500000) " points="315 272 326 285 337 272"></polyline>
            <polyline id="Stroke-623-Copy" stroke="#0B0C0A" stroke-linecap="round" stroke-linejoin="round" transform="translate(112.000000, 278.500000) rotate(-90.000000) translate(-112.000000, -278.500000) " points="101 272 112 285 123 272"></polyline>
            <polyline id="Stroke-623-Copy-2" stroke="#0B0C0A" stroke-linecap="round" stroke-linejoin="round" transform="translate(144.000000, 157.500000) rotate(-225.000000) translate(-144.000000, -157.500000) " points="133 151 144 164 155 151"></polyline>
            <polyline id="Stroke-623-Copy-3" stroke="#0B0C0A" stroke-linecap="round" stroke-linejoin="round" transform="translate(310.000000, 156.500000) rotate(-135.000000) translate(-310.000000, -156.500000) " points="299 150 310 163 321 150"></polyline>
        </g>
    </g>
</svg>
